<svg xmlns="http://www.w3.org/2000/svg" width="64" height="64"><g fill="none" fill-rule="evenodd"><path fill="#FEFEFE" d="M42.597 3.464c15.593 6.088 23.34 23.772 17.304 39.5-6.036 15.728-23.57 23.541-39.163 17.454C5.145 54.329-2.602 36.644 3.433 20.917 9.47 5.19 27.004-2.625 42.597 3.464"/><path fill="#FBAE3A" d="M42.082 20.464c0 3.002-2.458 5.436-5.491 5.436-3.032 0-5.491-2.434-5.491-5.436s2.459-5.436 5.49-5.436c3.034 0 5.492 2.434 5.492 5.436"/><path fill="#2E2E30" d="M36.59 16.43c-2.26 0-4.098 1.81-4.098 4.035 0 2.222 1.838 4.032 4.099 4.032 2.26 0 4.1-1.81 4.1-4.032 0-2.224-1.84-4.034-4.1-4.034m0 10.872c-3.795 0-6.882-3.067-6.882-6.838 0-3.772 3.087-6.84 6.882-6.84 3.795 0 6.882 3.068 6.882 6.84 0 3.77-3.087 6.838-6.882 6.838"/><path fill="#D73838" d="m31.36 22.117-1.222-.923C18.712 25.704 9.656 35.239 5.455 47.21c3.332 5.827 8.58 10.59 15.283 13.207a30.085 30.085 0 0 0 7.435 1.862l.11-.039c5.868-9.615 9.392-21.93 9.392-35.355l-1.32-.997a5.479 5.479 0 0 1-4.995-3.77"/><path fill="#2E2E30" d="M6.987 47.066c3.325 5.54 8.241 9.696 14.253 12.043a28.904 28.904 0 0 0 6.293 1.67c5.541-9.407 8.633-21.133 8.748-33.194l-.435-.328c-2.524-.274-4.712-1.926-5.65-4.265l-.265-.2C19.369 27.197 11.06 35.983 6.987 47.065m21.185 16.617c-.054 0-.107-.003-.161-.01a31.564 31.564 0 0 1-7.776-1.948C13.523 59.105 7.846 54.2 4.25 47.91a1.41 1.41 0 0 1-.106-1.168C8.491 34.352 17.78 24.565 29.63 19.888a1.376 1.376 0 0 1 1.34.183l1.224.922c.23.173.4.415.49.69.516 1.605 2.015 2.73 3.73 2.803.28.012.55.11.775.278l1.32.998c.351.265.558.68.558 1.123 0 13.13-3.409 25.948-9.6 36.09a1.396 1.396 0 0 1-.724.59l-.112.039a1.397 1.397 0 0 1-.459.079"/><path fill="#F69033" d="M32.006 17.477a5.498 5.498 0 0 1 4.585-2.45l.195-.12c0-4.665-1.797-9.983-6.63-13.463A30.265 30.265 0 0 0 6.863 14.43a41.968 41.968 0 0 1 8.585-.884A41.807 41.807 0 0 1 31.1 16.569l.906.908Z"/><path fill="#2E2E30" d="M15.45 12.142c5.58 0 11.02 1.05 16.167 3.125.11.044.213.1.307.171a6.877 6.877 0 0 1 3.427-1.703c-.203-2.747-1.232-7.483-5.617-10.86-7.491.513-14.555 4.015-19.541 9.585 1.742-.211 3.5-.318 5.256-.318m16.557 6.738c-.367 0-.72-.145-.982-.408l-.702-.704a40.329 40.329 0 0 0-14.873-2.82c-2.79 0-5.584.289-8.303.855a1.382 1.382 0 0 1-1.444-.602 1.414 1.414 0 0 1 .022-1.576C11.274 5.614 20.38.538 30.084.042c.315-.008.623.076.88.26 4.585 3.3 7.215 8.624 7.215 14.606 0 .49-.256.947-.673 1.2l-.197.12a1.376 1.376 0 0 1-.718.203 4.107 4.107 0 0 0-3.43 1.829 1.393 1.393 0 0 1-1.155.62"/><path fill="#5DB8E8" d="m59.564 20.096-.732-.96c-4.546-1.757-12.118-2.22-16.463-.688l-.623.158c.213.58.336 1.204.336 1.858a5.36 5.36 0 0 1-.626 2.514l.914.326c7.466 6.198 12.853 14.92 14.921 24.898a30.788 30.788 0 0 0 2.61-5.238c2.949-7.683 2.6-15.83-.337-22.868"/><path fill="#2E2E30" d="M43.243 22.211a.098.098 0 0 0 .01.01c6.921 5.744 11.992 13.52 14.523 22.177a29.216 29.216 0 0 0 .573-23.592l-.376-.493c-4.226-1.514-10.72-1.825-14.558-.727a6.768 6.768 0 0 1-.173 2.625m14.05 27.394a1.398 1.398 0 0 1-1.36-1.116c-1.942-9.353-7.002-17.847-14.259-23.946l-.68-.242a1.393 1.393 0 0 1-.833-.815 1.414 1.414 0 0 1 .07-1.168 3.923 3.923 0 0 0 .21-3.225c-.137-.373-.11-.79.075-1.143.184-.353.509-.61.893-.707l.565-.142c4.507-1.56 12.272-1.24 17.357.725.24.092.448.249.605.455l.731.96c.073.095.133.199.18.31a32.031 32.031 0 0 1 .352 23.92 32.272 32.272 0 0 1-2.728 5.478 1.391 1.391 0 0 1-1.179.656"/><path fill="#010201" fill-opacity=".3" d="M17.427 48.7A39.262 39.262 0 0 1 1.951 37.76c1.927 9.956 8.717 18.725 18.787 22.657C36.33 66.506 53.865 58.691 59.9 42.964a30.903 30.903 0 0 0 1.478-5.183c-10.605 12.24-28.052 17.128-43.952 10.92"/><path fill="#2E2E30" d="M31.7 2.807c-11.586 0-22.542 7.081-26.969 18.616-5.749 14.98 1.657 31.886 16.51 37.686 7.194 2.809 15.044 2.623 22.1-.52 7.057-3.146 12.478-8.874 15.263-16.131 5.75-14.981-1.656-31.886-16.509-37.685A28.546 28.546 0 0 0 31.7 2.807m-.069 61.073c-3.794 0-7.649-.692-11.395-2.154C3.952 55.368-4.167 36.834 2.136 20.41 8.44 3.987 26.816-4.203 43.1 2.156c16.284 6.358 24.403 24.89 18.1 41.315-4.854 12.645-16.866 20.41-29.568 20.41"/></g></svg>